<svg width="24" height="24" viewBox="0 0 24 24" fill="none" xmlns="http://www.w3.org/2000/svg">
<g clip-path="url(#clip0_3_482)">
<path fill-rule="evenodd" clip-rule="evenodd" d="M16.4425 10.0789C16.7995 10.4527 17 10.9594 17 11.4877C17 12.016 16.7995 12.5227 16.4425 12.8965L9.25429 20.4164C8.89667 20.7902 8.41169 21.0001 7.90606 21C7.40042 20.9999 6.91554 20.7897 6.55809 20.4157C6.20063 20.0417 5.99988 19.5345 6 19.0058C6.00012 18.477 6.2011 17.9699 6.55872 17.5961L12.3998 11.4877L6.55872 5.37927C6.21129 5.00344 6.01891 4.49995 6.02302 3.97723C6.02712 3.45451 6.22739 2.95438 6.58067 2.58458C6.93396 2.21477 7.412 2.00487 7.91184 2.00008C8.41168 1.9953 8.89332 2.19601 9.25302 2.55898L16.4438 10.0775L16.4425 10.0789Z" fill="#878787"/>
</g>
<defs>
<clipPath id="clip0_3_482">
<rect width="24" height="24" fill="white"/>
</clipPath>
</defs>
</svg>
