<svg width="24" height="24" viewBox="0 0 24 24" fill="none" xmlns="http://www.w3.org/2000/svg">
<g clip-path="url(#clip0_1_11)">
<path fill-rule="evenodd" clip-rule="evenodd" d="M12.7071 15.707C12.5196 15.8945 12.2653 15.9998 12.0001 15.9998C11.7349 15.9998 11.4806 15.8945 11.2931 15.707L5.6361 10.05C5.54059 9.95775 5.46441 9.84741 5.412 9.7254C5.35959 9.6034 5.332 9.47218 5.33085 9.3394C5.32969 9.20662 5.355 9.07494 5.40528 8.95205C5.45556 8.82915 5.52981 8.7175 5.6237 8.6236C5.7176 8.52971 5.82925 8.45546 5.95214 8.40518C6.07504 8.3549 6.20672 8.3296 6.3395 8.33075C6.47228 8.3319 6.6035 8.35949 6.7255 8.4119C6.84751 8.46431 6.95785 8.54049 7.0501 8.636L12.0001 13.586L16.9501 8.636C17.1387 8.45384 17.3913 8.35305 17.6535 8.35533C17.9157 8.3576 18.1665 8.46277 18.3519 8.64818C18.5373 8.83359 18.6425 9.0844 18.6448 9.3466C18.6471 9.6088 18.5463 9.8614 18.3641 10.05L12.7071 15.707Z" fill="#9E9E9E"/>
</g>
<defs>
<clipPath id="clip0_1_11">
<rect width="24" height="24" fill="white"/>
</clipPath>
</defs>
</svg>
